<mxfile host="app.diagrams.net" agent="Mozilla/5.0 (Windows NT 10.0; Win64; x64) AppleWebKit/537.36 (KHTML, like Gecko) Chrome/130.0.0.0 Safari/537.36" version="24.8.6" pages="3">
  <diagram name="Собственный кинотеатр" id="rnaNZMnlfwjxVZvryFjj">
    <mxGraphModel dx="1687" dy="918" grid="1" gridSize="10" guides="1" tooltips="1" connect="1" arrows="1" fold="1" page="1" pageScale="1" pageWidth="827" pageHeight="1169" math="0" shadow="0">
      <root>
        <mxCell id="f3-Gvlm2Z2FciO2JjJAF-0" />
        <mxCell id="f3-Gvlm2Z2FciO2JjJAF-1" parent="f3-Gvlm2Z2FciO2JjJAF-0" />
        <mxCell id="f3-Gvlm2Z2FciO2JjJAF-2" value="Гость" style="shape=umlActor;verticalLabelPosition=bottom;verticalAlign=top;html=1;" parent="f3-Gvlm2Z2FciO2JjJAF-1" vertex="1">
          <mxGeometry x="190" y="465" width="30" height="60" as="geometry" />
        </mxCell>
        <mxCell id="f3-Gvlm2Z2FciO2JjJAF-4" value="Купить билет" style="ellipse;whiteSpace=wrap;html=1;fontSize=12;" parent="f3-Gvlm2Z2FciO2JjJAF-1" vertex="1">
          <mxGeometry x="355.5" y="540" width="105" height="30" as="geometry" />
        </mxCell>
        <mxCell id="f3-Gvlm2Z2FciO2JjJAF-6" value="Выбрать фильм" style="ellipse;whiteSpace=wrap;html=1;" parent="f3-Gvlm2Z2FciO2JjJAF-1" vertex="1">
          <mxGeometry x="359" y="475" width="89" height="40" as="geometry" />
        </mxCell>
        <mxCell id="f3-Gvlm2Z2FciO2JjJAF-8" value="Ознакомиться с информацией о сеансах" style="ellipse;whiteSpace=wrap;html=1;fontSize=11;spacing=2;" parent="f3-Gvlm2Z2FciO2JjJAF-1" vertex="1">
          <mxGeometry x="542.5" y="485" width="125" height="55" as="geometry" />
        </mxCell>
        <mxCell id="f3-Gvlm2Z2FciO2JjJAF-9" value="&lt;div style=&quot;font-size: 11px;&quot;&gt;Ознакомиться&lt;/div&gt;&lt;div style=&quot;font-size: 11px;&quot;&gt;с информацией о фильме&lt;/div&gt;" style="ellipse;whiteSpace=wrap;html=1;fontSize=11;" parent="f3-Gvlm2Z2FciO2JjJAF-1" vertex="1">
          <mxGeometry x="545" y="410" width="120" height="60" as="geometry" />
        </mxCell>
        <mxCell id="f3-Gvlm2Z2FciO2JjJAF-11" value="Выбрать сеанс" style="ellipse;whiteSpace=wrap;html=1;" parent="f3-Gvlm2Z2FciO2JjJAF-1" vertex="1">
          <mxGeometry x="359" y="620" width="96" height="40" as="geometry" />
        </mxCell>
        <mxCell id="f3-Gvlm2Z2FciO2JjJAF-14" value="" style="endArrow=none;html=1;rounded=0;entryX=0;entryY=0.5;entryDx=0;entryDy=0;" parent="f3-Gvlm2Z2FciO2JjJAF-1" source="f3-Gvlm2Z2FciO2JjJAF-2" target="f3-Gvlm2Z2FciO2JjJAF-6" edge="1">
          <mxGeometry width="50" height="50" relative="1" as="geometry">
            <mxPoint x="270" y="530" as="sourcePoint" />
            <mxPoint x="420" y="560" as="targetPoint" />
          </mxGeometry>
        </mxCell>
        <mxCell id="f3-Gvlm2Z2FciO2JjJAF-15" value="" style="endArrow=none;html=1;rounded=0;entryX=0;entryY=0.5;entryDx=0;entryDy=0;" parent="f3-Gvlm2Z2FciO2JjJAF-1" source="f3-Gvlm2Z2FciO2JjJAF-2" target="f3-Gvlm2Z2FciO2JjJAF-4" edge="1">
          <mxGeometry width="50" height="50" relative="1" as="geometry">
            <mxPoint x="370" y="610" as="sourcePoint" />
            <mxPoint x="420" y="560" as="targetPoint" />
          </mxGeometry>
        </mxCell>
        <mxCell id="f3-Gvlm2Z2FciO2JjJAF-16" value="" style="endArrow=none;dashed=1;html=1;rounded=0;entryX=0.5;entryY=1;entryDx=0;entryDy=0;exitX=0.5;exitY=0;exitDx=0;exitDy=0;startArrow=open;startFill=0;" parent="f3-Gvlm2Z2FciO2JjJAF-1" source="f3-Gvlm2Z2FciO2JjJAF-11" target="f3-Gvlm2Z2FciO2JjJAF-4" edge="1">
          <mxGeometry width="50" height="50" relative="1" as="geometry">
            <mxPoint x="370" y="610" as="sourcePoint" />
            <mxPoint x="420" y="560" as="targetPoint" />
          </mxGeometry>
        </mxCell>
        <mxCell id="f3-Gvlm2Z2FciO2JjJAF-23" value="" style="endArrow=openThin;dashed=1;html=1;rounded=0;entryX=1;entryY=0.5;entryDx=0;entryDy=0;exitX=0;exitY=0.5;exitDx=0;exitDy=0;endFill=0;" parent="f3-Gvlm2Z2FciO2JjJAF-1" source="f3-Gvlm2Z2FciO2JjJAF-8" target="f3-Gvlm2Z2FciO2JjJAF-6" edge="1">
          <mxGeometry width="50" height="50" relative="1" as="geometry">
            <mxPoint x="553" y="510" as="sourcePoint" />
            <mxPoint x="466" y="460" as="targetPoint" />
          </mxGeometry>
        </mxCell>
        <mxCell id="f3-Gvlm2Z2FciO2JjJAF-24" value="" style="endArrow=openThin;dashed=1;html=1;rounded=0;entryX=1;entryY=0;entryDx=0;entryDy=0;exitX=0;exitY=0.5;exitDx=0;exitDy=0;startArrow=none;startFill=0;endFill=0;" parent="f3-Gvlm2Z2FciO2JjJAF-1" source="f3-Gvlm2Z2FciO2JjJAF-9" target="f3-Gvlm2Z2FciO2JjJAF-6" edge="1">
          <mxGeometry width="50" height="50" relative="1" as="geometry">
            <mxPoint x="555" y="450" as="sourcePoint" />
            <mxPoint x="451" y="439" as="targetPoint" />
          </mxGeometry>
        </mxCell>
        <mxCell id="f3-Gvlm2Z2FciO2JjJAF-29" value="«extend»" style="edgeLabel;html=1;align=center;verticalAlign=middle;resizable=0;points=[];rotation=-30;fontSize=8;" parent="f3-Gvlm2Z2FciO2JjJAF-1" vertex="1" connectable="0">
          <mxGeometry x="489.9984623316343" y="450.995130828617" as="geometry" />
        </mxCell>
        <mxCell id="f3-Gvlm2Z2FciO2JjJAF-30" value="«extend»" style="edgeLabel;html=1;align=center;verticalAlign=middle;resizable=0;points=[];rotation=15;fontSize=8;" parent="f3-Gvlm2Z2FciO2JjJAF-1" vertex="1" connectable="0">
          <mxGeometry x="509.9984623316343" y="497.995130828617" as="geometry" />
        </mxCell>
        <mxCell id="f3-Gvlm2Z2FciO2JjJAF-31" value="«include»" style="edgeLabel;html=1;align=center;verticalAlign=middle;resizable=0;points=[];rotation=90;fontSize=8;" parent="f3-Gvlm2Z2FciO2JjJAF-1" vertex="1" connectable="0">
          <mxGeometry x="419.99846233163436" y="595.995130828617" as="geometry" />
        </mxCell>
      </root>
    </mxGraphModel>
  </diagram>
  <diagram name="Goodwin Cinema" id="iWJ-1zaKSu3Ji1PHFZBb">
    <mxGraphModel dx="683" dy="364" grid="1" gridSize="10" guides="1" tooltips="1" connect="1" arrows="1" fold="1" page="1" pageScale="1" pageWidth="827" pageHeight="1169" math="0" shadow="0">
      <root>
        <mxCell id="qbEH_GYG9Mnh0emsTHKD-0" />
        <mxCell id="qbEH_GYG9Mnh0emsTHKD-1" parent="qbEH_GYG9Mnh0emsTHKD-0" />
        <mxCell id="qbEH_GYG9Mnh0emsTHKD-2" value="Гость" style="shape=umlActor;verticalLabelPosition=bottom;verticalAlign=top;html=1;" vertex="1" parent="qbEH_GYG9Mnh0emsTHKD-1">
          <mxGeometry x="190" y="465" width="30" height="60" as="geometry" />
        </mxCell>
        <mxCell id="qbEH_GYG9Mnh0emsTHKD-3" value="&lt;div&gt;Клиент&lt;/div&gt;&lt;div&gt;(зарегистрированный&lt;/div&gt;&lt;div&gt;пользователь)&lt;/div&gt;" style="shape=umlActor;verticalLabelPosition=bottom;verticalAlign=top;html=1;" vertex="1" parent="qbEH_GYG9Mnh0emsTHKD-1">
          <mxGeometry x="190" y="595" width="30" height="60" as="geometry" />
        </mxCell>
        <mxCell id="qbEH_GYG9Mnh0emsTHKD-4" value="Оплатить билет" style="ellipse;whiteSpace=wrap;html=1;fontSize=12;" vertex="1" parent="qbEH_GYG9Mnh0emsTHKD-1">
          <mxGeometry x="351" y="600" width="105" height="30" as="geometry" />
        </mxCell>
        <mxCell id="qbEH_GYG9Mnh0emsTHKD-5" value="Сделать предзаказ" style="ellipse;whiteSpace=wrap;html=1;" vertex="1" parent="qbEH_GYG9Mnh0emsTHKD-1">
          <mxGeometry x="540" y="602.5" width="127.5" height="35" as="geometry" />
        </mxCell>
        <mxCell id="qbEH_GYG9Mnh0emsTHKD-6" value="Найти фильм" style="ellipse;whiteSpace=wrap;html=1;" vertex="1" parent="qbEH_GYG9Mnh0emsTHKD-1">
          <mxGeometry x="359" y="515" width="89" height="40" as="geometry" />
        </mxCell>
        <mxCell id="qbEH_GYG9Mnh0emsTHKD-7" value="Оценить рейтинг" style="ellipse;whiteSpace=wrap;html=1;" vertex="1" parent="qbEH_GYG9Mnh0emsTHKD-1">
          <mxGeometry x="550" y="530" width="110" height="30" as="geometry" />
        </mxCell>
        <mxCell id="qbEH_GYG9Mnh0emsTHKD-8" value="Прочитать рецензии" style="ellipse;whiteSpace=wrap;html=1;fontSize=11;spacing=2;" vertex="1" parent="qbEH_GYG9Mnh0emsTHKD-1">
          <mxGeometry x="542.5" y="485" width="125" height="30" as="geometry" />
        </mxCell>
        <mxCell id="qbEH_GYG9Mnh0emsTHKD-9" value="&lt;div style=&quot;font-size: 11px;&quot;&gt;Ознакомиться&lt;/div&gt;&lt;div style=&quot;font-size: 11px;&quot;&gt;с отзывами пользователей&lt;/div&gt;" style="ellipse;whiteSpace=wrap;html=1;fontSize=11;" vertex="1" parent="qbEH_GYG9Mnh0emsTHKD-1">
          <mxGeometry x="545" y="410" width="120" height="60" as="geometry" />
        </mxCell>
        <mxCell id="qbEH_GYG9Mnh0emsTHKD-10" value="&lt;div style=&quot;font-size: 11px;&quot;&gt;Просмотреть информацию&lt;/div&gt;&lt;div style=&quot;font-size: 11px;&quot;&gt;о фильме&lt;/div&gt;" style="ellipse;whiteSpace=wrap;html=1;fontSize=11;" vertex="1" parent="qbEH_GYG9Mnh0emsTHKD-1">
          <mxGeometry x="351" y="420" width="105" height="60" as="geometry" />
        </mxCell>
        <mxCell id="qbEH_GYG9Mnh0emsTHKD-11" value="Выбрать сеанс" style="ellipse;whiteSpace=wrap;html=1;" vertex="1" parent="qbEH_GYG9Mnh0emsTHKD-1">
          <mxGeometry x="355.5" y="670" width="96" height="40" as="geometry" />
        </mxCell>
        <mxCell id="qbEH_GYG9Mnh0emsTHKD-12" value="" style="endArrow=block;html=1;rounded=0;endFill=0;" edge="1" parent="qbEH_GYG9Mnh0emsTHKD-1">
          <mxGeometry width="50" height="50" relative="1" as="geometry">
            <mxPoint x="205" y="590" as="sourcePoint" />
            <mxPoint x="205" y="550" as="targetPoint" />
          </mxGeometry>
        </mxCell>
        <mxCell id="qbEH_GYG9Mnh0emsTHKD-13" value="" style="endArrow=none;html=1;rounded=0;exitX=0;exitY=0.5;exitDx=0;exitDy=0;" edge="1" parent="qbEH_GYG9Mnh0emsTHKD-1" source="qbEH_GYG9Mnh0emsTHKD-10" target="qbEH_GYG9Mnh0emsTHKD-2">
          <mxGeometry width="50" height="50" relative="1" as="geometry">
            <mxPoint x="370" y="610" as="sourcePoint" />
            <mxPoint x="420" y="560" as="targetPoint" />
          </mxGeometry>
        </mxCell>
        <mxCell id="qbEH_GYG9Mnh0emsTHKD-14" value="" style="endArrow=none;html=1;rounded=0;entryX=0;entryY=0.5;entryDx=0;entryDy=0;" edge="1" parent="qbEH_GYG9Mnh0emsTHKD-1" source="qbEH_GYG9Mnh0emsTHKD-2" target="qbEH_GYG9Mnh0emsTHKD-6">
          <mxGeometry width="50" height="50" relative="1" as="geometry">
            <mxPoint x="270" y="530" as="sourcePoint" />
            <mxPoint x="420" y="560" as="targetPoint" />
          </mxGeometry>
        </mxCell>
        <mxCell id="qbEH_GYG9Mnh0emsTHKD-15" value="" style="endArrow=none;html=1;rounded=0;entryX=0;entryY=0.5;entryDx=0;entryDy=0;" edge="1" parent="qbEH_GYG9Mnh0emsTHKD-1" source="qbEH_GYG9Mnh0emsTHKD-2" target="qbEH_GYG9Mnh0emsTHKD-4">
          <mxGeometry width="50" height="50" relative="1" as="geometry">
            <mxPoint x="370" y="610" as="sourcePoint" />
            <mxPoint x="420" y="560" as="targetPoint" />
          </mxGeometry>
        </mxCell>
        <mxCell id="qbEH_GYG9Mnh0emsTHKD-16" value="" style="endArrow=none;dashed=1;html=1;rounded=0;entryX=0.5;entryY=1;entryDx=0;entryDy=0;exitX=0.5;exitY=0;exitDx=0;exitDy=0;startArrow=open;startFill=0;" edge="1" parent="qbEH_GYG9Mnh0emsTHKD-1" source="qbEH_GYG9Mnh0emsTHKD-11" target="qbEH_GYG9Mnh0emsTHKD-4">
          <mxGeometry width="50" height="50" relative="1" as="geometry">
            <mxPoint x="370" y="610" as="sourcePoint" />
            <mxPoint x="420" y="560" as="targetPoint" />
          </mxGeometry>
        </mxCell>
        <mxCell id="qbEH_GYG9Mnh0emsTHKD-17" value="" style="endArrow=open;dashed=1;rounded=0;entryX=1;entryY=0.5;entryDx=0;entryDy=0;exitX=0;exitY=0.5;exitDx=0;exitDy=0;startArrow=none;startFill=0;endFill=0;html=1;" edge="1" parent="qbEH_GYG9Mnh0emsTHKD-1" source="qbEH_GYG9Mnh0emsTHKD-5" target="qbEH_GYG9Mnh0emsTHKD-4">
          <mxGeometry width="50" height="50" relative="1" as="geometry">
            <mxPoint x="414" y="680" as="sourcePoint" />
            <mxPoint x="414" y="640" as="targetPoint" />
          </mxGeometry>
        </mxCell>
        <mxCell id="qbEH_GYG9Mnh0emsTHKD-18" value="«extend»" style="edgeLabel;html=1;align=center;verticalAlign=middle;resizable=0;points=[];rotation=5;fontSize=8;" vertex="1" connectable="0" parent="qbEH_GYG9Mnh0emsTHKD-17">
          <mxGeometry x="0.0457" y="1" relative="1" as="geometry">
            <mxPoint x="6" y="-9" as="offset" />
          </mxGeometry>
        </mxCell>
        <mxCell id="qbEH_GYG9Mnh0emsTHKD-19" value="" style="endArrow=openThin;dashed=1;html=1;rounded=0;entryX=1;entryY=0;entryDx=0;entryDy=0;exitX=0;exitY=0.5;exitDx=0;exitDy=0;startArrow=none;startFill=0;endFill=0;" edge="1" parent="qbEH_GYG9Mnh0emsTHKD-1" source="qbEH_GYG9Mnh0emsTHKD-9" target="qbEH_GYG9Mnh0emsTHKD-10">
          <mxGeometry width="50" height="50" relative="1" as="geometry">
            <mxPoint x="535.5" y="502.5" as="sourcePoint" />
            <mxPoint x="451.5" y="497.5" as="targetPoint" />
          </mxGeometry>
        </mxCell>
        <mxCell id="qbEH_GYG9Mnh0emsTHKD-20" value="" style="endArrow=openThin;dashed=1;html=1;rounded=0;entryX=1;entryY=0.5;entryDx=0;entryDy=0;exitX=0;exitY=0.5;exitDx=0;exitDy=0;endFill=0;" edge="1" parent="qbEH_GYG9Mnh0emsTHKD-1" source="qbEH_GYG9Mnh0emsTHKD-8" target="qbEH_GYG9Mnh0emsTHKD-10">
          <mxGeometry width="50" height="50" relative="1" as="geometry">
            <mxPoint x="555" y="450" as="sourcePoint" />
            <mxPoint x="466" y="460" as="targetPoint" />
          </mxGeometry>
        </mxCell>
        <mxCell id="qbEH_GYG9Mnh0emsTHKD-21" value="" style="endArrow=openThin;dashed=1;html=1;rounded=0;entryX=1;entryY=1;entryDx=0;entryDy=0;exitX=0;exitY=0.5;exitDx=0;exitDy=0;endFill=0;" edge="1" parent="qbEH_GYG9Mnh0emsTHKD-1" source="qbEH_GYG9Mnh0emsTHKD-7" target="qbEH_GYG9Mnh0emsTHKD-10">
          <mxGeometry width="50" height="50" relative="1" as="geometry">
            <mxPoint x="553" y="510" as="sourcePoint" />
            <mxPoint x="466" y="460" as="targetPoint" />
          </mxGeometry>
        </mxCell>
        <mxCell id="qbEH_GYG9Mnh0emsTHKD-22" value="" style="endArrow=openThin;dashed=1;html=1;rounded=0;exitX=0;exitY=0.5;exitDx=0;exitDy=0;endFill=0;entryX=1;entryY=1;entryDx=0;entryDy=0;" edge="1" parent="qbEH_GYG9Mnh0emsTHKD-1" source="qbEH_GYG9Mnh0emsTHKD-7" target="qbEH_GYG9Mnh0emsTHKD-6">
          <mxGeometry width="50" height="50" relative="1" as="geometry">
            <mxPoint x="560" y="555" as="sourcePoint" />
            <mxPoint x="460" y="570" as="targetPoint" />
          </mxGeometry>
        </mxCell>
        <mxCell id="qbEH_GYG9Mnh0emsTHKD-23" value="" style="endArrow=openThin;dashed=1;html=1;rounded=0;entryX=1;entryY=0.5;entryDx=0;entryDy=0;exitX=0;exitY=0.5;exitDx=0;exitDy=0;endFill=0;" edge="1" parent="qbEH_GYG9Mnh0emsTHKD-1" source="qbEH_GYG9Mnh0emsTHKD-8" target="qbEH_GYG9Mnh0emsTHKD-6">
          <mxGeometry width="50" height="50" relative="1" as="geometry">
            <mxPoint x="553" y="510" as="sourcePoint" />
            <mxPoint x="466" y="460" as="targetPoint" />
          </mxGeometry>
        </mxCell>
        <mxCell id="qbEH_GYG9Mnh0emsTHKD-24" value="" style="endArrow=openThin;dashed=1;html=1;rounded=0;entryX=1;entryY=0;entryDx=0;entryDy=0;exitX=0;exitY=0.5;exitDx=0;exitDy=0;startArrow=none;startFill=0;endFill=0;" edge="1" parent="qbEH_GYG9Mnh0emsTHKD-1" source="qbEH_GYG9Mnh0emsTHKD-9" target="qbEH_GYG9Mnh0emsTHKD-6">
          <mxGeometry width="50" height="50" relative="1" as="geometry">
            <mxPoint x="555" y="450" as="sourcePoint" />
            <mxPoint x="451" y="439" as="targetPoint" />
          </mxGeometry>
        </mxCell>
        <mxCell id="qbEH_GYG9Mnh0emsTHKD-25" value="«extend»" style="edgeLabel;html=1;align=center;verticalAlign=middle;resizable=0;points=[];rotation=5;fontSize=8;" vertex="1" connectable="0" parent="qbEH_GYG9Mnh0emsTHKD-1">
          <mxGeometry x="497.99846233163436" y="426.995130828617" as="geometry" />
        </mxCell>
        <mxCell id="qbEH_GYG9Mnh0emsTHKD-26" value="«extend»" style="edgeLabel;html=1;align=center;verticalAlign=middle;resizable=0;points=[];rotation=355;fontSize=8;" vertex="1" connectable="0" parent="qbEH_GYG9Mnh0emsTHKD-1">
          <mxGeometry x="499.99846233163436" y="551.995130828617" as="geometry" />
        </mxCell>
        <mxCell id="qbEH_GYG9Mnh0emsTHKD-27" value="«extend»" style="edgeLabel;html=1;align=center;verticalAlign=middle;resizable=0;points=[];rotation=30;fontSize=8;" vertex="1" connectable="0" parent="qbEH_GYG9Mnh0emsTHKD-1">
          <mxGeometry x="480.9984623316343" y="454.995130828617" as="geometry" />
        </mxCell>
        <mxCell id="qbEH_GYG9Mnh0emsTHKD-28" value="«extend»" style="edgeLabel;html=1;align=center;verticalAlign=middle;resizable=0;points=[];rotation=30;fontSize=8;" vertex="1" connectable="0" parent="qbEH_GYG9Mnh0emsTHKD-1">
          <mxGeometry x="465.9984623316343" y="478.995130828617" as="geometry">
            <mxPoint x="-3.232050807568877" y="-1.598076211353316" as="offset" />
          </mxGeometry>
        </mxCell>
        <mxCell id="qbEH_GYG9Mnh0emsTHKD-29" value="«extend»" style="edgeLabel;html=1;align=center;verticalAlign=middle;resizable=0;points=[];rotation=320;fontSize=8;" vertex="1" connectable="0" parent="qbEH_GYG9Mnh0emsTHKD-1">
          <mxGeometry x="449.4984623316343" y="500.995130828617" as="geometry" />
        </mxCell>
        <mxCell id="qbEH_GYG9Mnh0emsTHKD-30" value="«extend»" style="edgeLabel;html=1;align=center;verticalAlign=middle;resizable=0;points=[];rotation=340;fontSize=8;" vertex="1" connectable="0" parent="qbEH_GYG9Mnh0emsTHKD-1">
          <mxGeometry x="468.9984623316343" y="518.995130828617" as="geometry" />
        </mxCell>
        <mxCell id="qbEH_GYG9Mnh0emsTHKD-31" value="«include»" style="edgeLabel;html=1;align=center;verticalAlign=middle;resizable=0;points=[];rotation=90;fontSize=8;" vertex="1" connectable="0" parent="qbEH_GYG9Mnh0emsTHKD-1">
          <mxGeometry x="412.99846233163436" y="647.995130828617" as="geometry" />
        </mxCell>
      </root>
    </mxGraphModel>
  </diagram>
  <diagram name="Fakel" id="J5MovJHjWMtqBHR7f5Ix">
    <mxGraphModel dx="683" dy="364" grid="1" gridSize="10" guides="1" tooltips="1" connect="1" arrows="1" fold="1" page="1" pageScale="1" pageWidth="827" pageHeight="1169" math="0" shadow="0">
      <root>
        <mxCell id="PKpnp_iKhnU0a8_UWCfo-0" />
        <mxCell id="PKpnp_iKhnU0a8_UWCfo-1" parent="PKpnp_iKhnU0a8_UWCfo-0" />
        <mxCell id="PKpnp_iKhnU0a8_UWCfo-2" value="Гость" style="shape=umlActor;verticalLabelPosition=bottom;verticalAlign=top;html=1;" vertex="1" parent="PKpnp_iKhnU0a8_UWCfo-1">
          <mxGeometry x="190" y="465" width="30" height="60" as="geometry" />
        </mxCell>
        <mxCell id="PKpnp_iKhnU0a8_UWCfo-3" value="&lt;div&gt;Клиент&lt;/div&gt;&lt;div&gt;(зарегистрированный&lt;/div&gt;&lt;div&gt;пользователь)&lt;/div&gt;" style="shape=umlActor;verticalLabelPosition=bottom;verticalAlign=top;html=1;" vertex="1" parent="PKpnp_iKhnU0a8_UWCfo-1">
          <mxGeometry x="190" y="595" width="30" height="60" as="geometry" />
        </mxCell>
        <mxCell id="PKpnp_iKhnU0a8_UWCfo-4" value="Оплатить билет" style="ellipse;whiteSpace=wrap;html=1;fontSize=12;" vertex="1" parent="PKpnp_iKhnU0a8_UWCfo-1">
          <mxGeometry x="351" y="600" width="105" height="30" as="geometry" />
        </mxCell>
        <mxCell id="PKpnp_iKhnU0a8_UWCfo-5" value="Сделать предзаказ" style="ellipse;whiteSpace=wrap;html=1;" vertex="1" parent="PKpnp_iKhnU0a8_UWCfo-1">
          <mxGeometry x="540" y="602.5" width="127.5" height="35" as="geometry" />
        </mxCell>
        <mxCell id="PKpnp_iKhnU0a8_UWCfo-6" value="Найти фильм" style="ellipse;whiteSpace=wrap;html=1;" vertex="1" parent="PKpnp_iKhnU0a8_UWCfo-1">
          <mxGeometry x="359" y="515" width="89" height="40" as="geometry" />
        </mxCell>
        <mxCell id="PKpnp_iKhnU0a8_UWCfo-7" value="Оценить рейтинг" style="ellipse;whiteSpace=wrap;html=1;" vertex="1" parent="PKpnp_iKhnU0a8_UWCfo-1">
          <mxGeometry x="550" y="530" width="110" height="30" as="geometry" />
        </mxCell>
        <mxCell id="PKpnp_iKhnU0a8_UWCfo-8" value="Прочитать рецензии" style="ellipse;whiteSpace=wrap;html=1;fontSize=11;spacing=2;" vertex="1" parent="PKpnp_iKhnU0a8_UWCfo-1">
          <mxGeometry x="542.5" y="485" width="125" height="30" as="geometry" />
        </mxCell>
        <mxCell id="PKpnp_iKhnU0a8_UWCfo-9" value="&lt;div style=&quot;font-size: 11px;&quot;&gt;Ознакомиться&lt;/div&gt;&lt;div style=&quot;font-size: 11px;&quot;&gt;с отзывами пользователей&lt;/div&gt;" style="ellipse;whiteSpace=wrap;html=1;fontSize=11;" vertex="1" parent="PKpnp_iKhnU0a8_UWCfo-1">
          <mxGeometry x="545" y="410" width="120" height="60" as="geometry" />
        </mxCell>
        <mxCell id="PKpnp_iKhnU0a8_UWCfo-10" value="&lt;div style=&quot;font-size: 11px;&quot;&gt;Просмотреть информацию&lt;/div&gt;&lt;div style=&quot;font-size: 11px;&quot;&gt;о фильме&lt;/div&gt;" style="ellipse;whiteSpace=wrap;html=1;fontSize=11;" vertex="1" parent="PKpnp_iKhnU0a8_UWCfo-1">
          <mxGeometry x="351" y="420" width="105" height="60" as="geometry" />
        </mxCell>
        <mxCell id="PKpnp_iKhnU0a8_UWCfo-11" value="Выбрать сеанс" style="ellipse;whiteSpace=wrap;html=1;" vertex="1" parent="PKpnp_iKhnU0a8_UWCfo-1">
          <mxGeometry x="355.5" y="670" width="96" height="40" as="geometry" />
        </mxCell>
        <mxCell id="PKpnp_iKhnU0a8_UWCfo-12" value="" style="endArrow=block;html=1;rounded=0;endFill=0;" edge="1" parent="PKpnp_iKhnU0a8_UWCfo-1">
          <mxGeometry width="50" height="50" relative="1" as="geometry">
            <mxPoint x="205" y="590" as="sourcePoint" />
            <mxPoint x="205" y="550" as="targetPoint" />
          </mxGeometry>
        </mxCell>
        <mxCell id="PKpnp_iKhnU0a8_UWCfo-13" value="" style="endArrow=none;html=1;rounded=0;exitX=0;exitY=0.5;exitDx=0;exitDy=0;" edge="1" parent="PKpnp_iKhnU0a8_UWCfo-1" source="PKpnp_iKhnU0a8_UWCfo-10" target="PKpnp_iKhnU0a8_UWCfo-2">
          <mxGeometry width="50" height="50" relative="1" as="geometry">
            <mxPoint x="370" y="610" as="sourcePoint" />
            <mxPoint x="420" y="560" as="targetPoint" />
          </mxGeometry>
        </mxCell>
        <mxCell id="PKpnp_iKhnU0a8_UWCfo-14" value="" style="endArrow=none;html=1;rounded=0;entryX=0;entryY=0.5;entryDx=0;entryDy=0;" edge="1" parent="PKpnp_iKhnU0a8_UWCfo-1" source="PKpnp_iKhnU0a8_UWCfo-2" target="PKpnp_iKhnU0a8_UWCfo-6">
          <mxGeometry width="50" height="50" relative="1" as="geometry">
            <mxPoint x="270" y="530" as="sourcePoint" />
            <mxPoint x="420" y="560" as="targetPoint" />
          </mxGeometry>
        </mxCell>
        <mxCell id="PKpnp_iKhnU0a8_UWCfo-15" value="" style="endArrow=none;html=1;rounded=0;entryX=0;entryY=0.5;entryDx=0;entryDy=0;" edge="1" parent="PKpnp_iKhnU0a8_UWCfo-1" source="PKpnp_iKhnU0a8_UWCfo-2" target="PKpnp_iKhnU0a8_UWCfo-4">
          <mxGeometry width="50" height="50" relative="1" as="geometry">
            <mxPoint x="370" y="610" as="sourcePoint" />
            <mxPoint x="420" y="560" as="targetPoint" />
          </mxGeometry>
        </mxCell>
        <mxCell id="PKpnp_iKhnU0a8_UWCfo-16" value="" style="endArrow=none;dashed=1;html=1;rounded=0;entryX=0.5;entryY=1;entryDx=0;entryDy=0;exitX=0.5;exitY=0;exitDx=0;exitDy=0;startArrow=open;startFill=0;" edge="1" parent="PKpnp_iKhnU0a8_UWCfo-1" source="PKpnp_iKhnU0a8_UWCfo-11" target="PKpnp_iKhnU0a8_UWCfo-4">
          <mxGeometry width="50" height="50" relative="1" as="geometry">
            <mxPoint x="370" y="610" as="sourcePoint" />
            <mxPoint x="420" y="560" as="targetPoint" />
          </mxGeometry>
        </mxCell>
        <mxCell id="PKpnp_iKhnU0a8_UWCfo-17" value="" style="endArrow=open;dashed=1;rounded=0;entryX=1;entryY=0.5;entryDx=0;entryDy=0;exitX=0;exitY=0.5;exitDx=0;exitDy=0;startArrow=none;startFill=0;endFill=0;html=1;" edge="1" parent="PKpnp_iKhnU0a8_UWCfo-1" source="PKpnp_iKhnU0a8_UWCfo-5" target="PKpnp_iKhnU0a8_UWCfo-4">
          <mxGeometry width="50" height="50" relative="1" as="geometry">
            <mxPoint x="414" y="680" as="sourcePoint" />
            <mxPoint x="414" y="640" as="targetPoint" />
          </mxGeometry>
        </mxCell>
        <mxCell id="PKpnp_iKhnU0a8_UWCfo-18" value="«extend»" style="edgeLabel;html=1;align=center;verticalAlign=middle;resizable=0;points=[];rotation=5;fontSize=8;" vertex="1" connectable="0" parent="PKpnp_iKhnU0a8_UWCfo-17">
          <mxGeometry x="0.0457" y="1" relative="1" as="geometry">
            <mxPoint x="6" y="-9" as="offset" />
          </mxGeometry>
        </mxCell>
        <mxCell id="PKpnp_iKhnU0a8_UWCfo-19" value="" style="endArrow=openThin;dashed=1;html=1;rounded=0;entryX=1;entryY=0;entryDx=0;entryDy=0;exitX=0;exitY=0.5;exitDx=0;exitDy=0;startArrow=none;startFill=0;endFill=0;" edge="1" parent="PKpnp_iKhnU0a8_UWCfo-1" source="PKpnp_iKhnU0a8_UWCfo-9" target="PKpnp_iKhnU0a8_UWCfo-10">
          <mxGeometry width="50" height="50" relative="1" as="geometry">
            <mxPoint x="535.5" y="502.5" as="sourcePoint" />
            <mxPoint x="451.5" y="497.5" as="targetPoint" />
          </mxGeometry>
        </mxCell>
        <mxCell id="PKpnp_iKhnU0a8_UWCfo-20" value="" style="endArrow=openThin;dashed=1;html=1;rounded=0;entryX=1;entryY=0.5;entryDx=0;entryDy=0;exitX=0;exitY=0.5;exitDx=0;exitDy=0;endFill=0;" edge="1" parent="PKpnp_iKhnU0a8_UWCfo-1" source="PKpnp_iKhnU0a8_UWCfo-8" target="PKpnp_iKhnU0a8_UWCfo-10">
          <mxGeometry width="50" height="50" relative="1" as="geometry">
            <mxPoint x="555" y="450" as="sourcePoint" />
            <mxPoint x="466" y="460" as="targetPoint" />
          </mxGeometry>
        </mxCell>
        <mxCell id="PKpnp_iKhnU0a8_UWCfo-21" value="" style="endArrow=openThin;dashed=1;html=1;rounded=0;entryX=1;entryY=1;entryDx=0;entryDy=0;exitX=0;exitY=0.5;exitDx=0;exitDy=0;endFill=0;" edge="1" parent="PKpnp_iKhnU0a8_UWCfo-1" source="PKpnp_iKhnU0a8_UWCfo-7" target="PKpnp_iKhnU0a8_UWCfo-10">
          <mxGeometry width="50" height="50" relative="1" as="geometry">
            <mxPoint x="553" y="510" as="sourcePoint" />
            <mxPoint x="466" y="460" as="targetPoint" />
          </mxGeometry>
        </mxCell>
        <mxCell id="PKpnp_iKhnU0a8_UWCfo-22" value="" style="endArrow=openThin;dashed=1;html=1;rounded=0;exitX=0;exitY=0.5;exitDx=0;exitDy=0;endFill=0;entryX=1;entryY=1;entryDx=0;entryDy=0;" edge="1" parent="PKpnp_iKhnU0a8_UWCfo-1" source="PKpnp_iKhnU0a8_UWCfo-7" target="PKpnp_iKhnU0a8_UWCfo-6">
          <mxGeometry width="50" height="50" relative="1" as="geometry">
            <mxPoint x="560" y="555" as="sourcePoint" />
            <mxPoint x="460" y="570" as="targetPoint" />
          </mxGeometry>
        </mxCell>
        <mxCell id="PKpnp_iKhnU0a8_UWCfo-23" value="" style="endArrow=openThin;dashed=1;html=1;rounded=0;entryX=1;entryY=0.5;entryDx=0;entryDy=0;exitX=0;exitY=0.5;exitDx=0;exitDy=0;endFill=0;" edge="1" parent="PKpnp_iKhnU0a8_UWCfo-1" source="PKpnp_iKhnU0a8_UWCfo-8" target="PKpnp_iKhnU0a8_UWCfo-6">
          <mxGeometry width="50" height="50" relative="1" as="geometry">
            <mxPoint x="553" y="510" as="sourcePoint" />
            <mxPoint x="466" y="460" as="targetPoint" />
          </mxGeometry>
        </mxCell>
        <mxCell id="PKpnp_iKhnU0a8_UWCfo-24" value="" style="endArrow=openThin;dashed=1;html=1;rounded=0;entryX=1;entryY=0;entryDx=0;entryDy=0;exitX=0;exitY=0.5;exitDx=0;exitDy=0;startArrow=none;startFill=0;endFill=0;" edge="1" parent="PKpnp_iKhnU0a8_UWCfo-1" source="PKpnp_iKhnU0a8_UWCfo-9" target="PKpnp_iKhnU0a8_UWCfo-6">
          <mxGeometry width="50" height="50" relative="1" as="geometry">
            <mxPoint x="555" y="450" as="sourcePoint" />
            <mxPoint x="451" y="439" as="targetPoint" />
          </mxGeometry>
        </mxCell>
        <mxCell id="PKpnp_iKhnU0a8_UWCfo-25" value="«extend»" style="edgeLabel;html=1;align=center;verticalAlign=middle;resizable=0;points=[];rotation=5;fontSize=8;" vertex="1" connectable="0" parent="PKpnp_iKhnU0a8_UWCfo-1">
          <mxGeometry x="497.99846233163436" y="426.995130828617" as="geometry" />
        </mxCell>
        <mxCell id="PKpnp_iKhnU0a8_UWCfo-26" value="«extend»" style="edgeLabel;html=1;align=center;verticalAlign=middle;resizable=0;points=[];rotation=355;fontSize=8;" vertex="1" connectable="0" parent="PKpnp_iKhnU0a8_UWCfo-1">
          <mxGeometry x="499.99846233163436" y="551.995130828617" as="geometry" />
        </mxCell>
        <mxCell id="PKpnp_iKhnU0a8_UWCfo-27" value="«extend»" style="edgeLabel;html=1;align=center;verticalAlign=middle;resizable=0;points=[];rotation=30;fontSize=8;" vertex="1" connectable="0" parent="PKpnp_iKhnU0a8_UWCfo-1">
          <mxGeometry x="480.9984623316343" y="454.995130828617" as="geometry" />
        </mxCell>
        <mxCell id="PKpnp_iKhnU0a8_UWCfo-28" value="«extend»" style="edgeLabel;html=1;align=center;verticalAlign=middle;resizable=0;points=[];rotation=30;fontSize=8;" vertex="1" connectable="0" parent="PKpnp_iKhnU0a8_UWCfo-1">
          <mxGeometry x="465.9984623316343" y="478.995130828617" as="geometry">
            <mxPoint x="-3.232050807568877" y="-1.598076211353316" as="offset" />
          </mxGeometry>
        </mxCell>
        <mxCell id="PKpnp_iKhnU0a8_UWCfo-29" value="«extend»" style="edgeLabel;html=1;align=center;verticalAlign=middle;resizable=0;points=[];rotation=320;fontSize=8;" vertex="1" connectable="0" parent="PKpnp_iKhnU0a8_UWCfo-1">
          <mxGeometry x="449.4984623316343" y="500.995130828617" as="geometry" />
        </mxCell>
        <mxCell id="PKpnp_iKhnU0a8_UWCfo-30" value="«extend»" style="edgeLabel;html=1;align=center;verticalAlign=middle;resizable=0;points=[];rotation=340;fontSize=8;" vertex="1" connectable="0" parent="PKpnp_iKhnU0a8_UWCfo-1">
          <mxGeometry x="468.9984623316343" y="518.995130828617" as="geometry" />
        </mxCell>
        <mxCell id="PKpnp_iKhnU0a8_UWCfo-31" value="«include»" style="edgeLabel;html=1;align=center;verticalAlign=middle;resizable=0;points=[];rotation=90;fontSize=8;" vertex="1" connectable="0" parent="PKpnp_iKhnU0a8_UWCfo-1">
          <mxGeometry x="412.99846233163436" y="647.995130828617" as="geometry" />
        </mxCell>
      </root>
    </mxGraphModel>
  </diagram>
</mxfile>
